0
SECTION
2
HEADER
9
$ACADVER
1
AC1009
0
ENDSEC
0
SECTION
2
ENTITIES
0
LINE
8
0
10
0.000000
20
0.000000
30
0.0
11
0.835398
21
4.000000
31
0.0
0
LINE
8
0
10
0.835398
20
4.000000
30
0.0
11
1.178097
21
6.250000
31
0.0
0
LINE
8
0
10
1.178097
20
6.250000
30
0.0
11
1.963495
21
6.250000
31
0.0
0
LINE
8
0
10
1.963495
20
6.250000
30
0.0
11
2.306194
21
4.000000
31
0.0
0
LINE
8
0
10
2.306194
20
4.000000
30
0.0
11
3.976991
21
4.000000
31
0.0
0
LINE
8
0
10
3.976991
20
4.000000
30
0.0
11
4.319690
21
6.250000
31
0.0
0
LINE
8
0
10
4.319690
20
6.250000
30
0.0
11
5.105088
21
6.250000
31
0.0
0
LINE
8
0
10
5.105088
20
6.250000
30
0.0
11
5.447787
21
4.000000
31
0.0
0
LINE
8
0
10
5.447787
20
4.000000
30
0.0
11
7.118583
21
4.000000
31
0.0
0
LINE
8
0
10
7.118583
20
4.000000
30
0.0
11
7.461283
21
6.250000
31
0.0
0
LINE
8
0
10
7.461283
20
6.250000
30
0.0
11
8.246681
21
6.250000
31
0.0
0
LINE
8
0
10
8.246681
20
6.250000
30
0.0
11
8.589380
21
4.000000
31
0.0
0
LINE
8
0
10
8.589380
20
4.000000
30
0.0
11
10.260176
21
4.000000
31
0.0
0
LINE
8
0
10
10.260176
20
4.000000
30
0.0
11
10.602875
21
6.250000
31
0.0
0
LINE
8
0
10
10.602875
20
6.250000
30
0.0
11
11.388273
21
6.250000
31
0.0
0
LINE
8
0
10
11.388273
20
6.250000
30
0.0
11
11.730972
21
4.000000
31
0.0
0
LINE
8
0
10
11.730972
20
4.000000
30
0.0
11
13.401769
21
4.000000
31
0.0
0
LINE
8
0
10
13.401769
20
4.000000
30
0.0
11
13.744468
21
6.250000
31
0.0
0
LINE
8
0
10
13.744468
20
6.250000
30
0.0
11
14.529866
21
6.250000
31
0.0
0
LINE
8
0
10
14.529866
20
6.250000
30
0.0
11
14.872565
21
4.000000
31
0.0
0
LINE
8
0
10
14.872565
20
4.000000
30
0.0
11
16.543361
21
4.000000
31
0.0
0
LINE
8
0
10
16.543361
20
4.000000
30
0.0
11
16.886061
21
6.250000
31
0.0
0
LINE
8
0
10
16.886061
20
6.250000
30
0.0
11
17.671459
21
6.250000
31
0.0
0
LINE
8
0
10
17.671459
20
6.250000
30
0.0
11
18.014158
21
4.000000
31
0.0
0
LINE
8
0
10
18.014158
20
4.000000
30
0.0
11
19.684954
21
4.000000
31
0.0
0
LINE
8
0
10
19.684954
20
4.000000
30
0.0
11
20.027653
21
6.250000
31
0.0
0
LINE
8
0
10
20.027653
20
6.250000
30
0.0
11
20.813051
21
6.250000
31
0.0
0
LINE
8
0
10
20.813051
20
6.250000
30
0.0
11
21.155750
21
4.000000
31
0.0
0
LINE
8
0
10
21.155750
20
4.000000
30
0.0
11
21.991149
21
4.000000
31
0.0
0
LINE
8
0
10
21.991149
20
4.000000
30
0.0
11
21.991149
21
0.000000
31
0.0
0
LINE
8
0
10
21.991149
20
0.000000
30
0.0
11
0.000000
21
0.000000
31
0.0
0
ENDSEC
0
EOF
